<?xml version="1.0" encoding="UTF-8"?>
<svg id="Layer_2" data-name="Layer 2" xmlns="http://www.w3.org/2000/svg" viewBox="0 0 367.85 342.27">
  <defs>
    <style>
      .cls-1 {
        fill: none;
        stroke: #231f20;
        stroke-linecap: round;
        stroke-miterlimit: 10;
        stroke-width: 18px;
      }

      .cls-2 {
        fill: #231f20;
        stroke-width: 0px;
      }
    </style>
  </defs>
  <g id="Layer_1-2" data-name="Layer 1">
    <g>
      <path class="cls-2" d="M22.62,166.99c2.09,50.66,16.67,98.32,36.44,144.7,4.13,9.68,13.35,23.53,1.91,28.83-16.43,7.61-18.46-11.46-22.33-21.33C13.82,255.88-10.54,192.19,4.76,122.11,25.71,26.12,120.89-25.39,211.46,12.52c71.28,29.83,114.71,89.08,151.67,153.56,4.2,7.34,8.17,17.3-.23,21.82-11.8,6.34-16.37-6.27-20.73-13.76-26.81-46.1-57.84-88.27-101.57-120.49-47.27-34.82-98.22-41.8-149.81-15.69C39.41,63.97,19.66,110.43,22.62,166.99Z"/>
      <path class="cls-1" d="M54.98,200.18c-.43-2.12-3.96-21.18,9.81-36.79,13.53-15.34,32.43-14.5,34.69-14.36"/>
      <path class="cls-1" d="M174.56,104.16c.72-2.04,7.47-20.21,27.3-26.54,19.48-6.22,35.28,4.19,37.14,5.47"/>
      <path class="cls-1" d="M189.07,128.26c.15,2.37,8.55,47.36.49,54.28-6.26,5.37-57.15-5.99-59.7-6.52"/>
    </g>
  </g>
</svg>